<svg width="785" height="753" viewBox="0 0 785 753" fill="none" xmlns="http://www.w3.org/2000/svg">
<path d="M11.6094 412.607C17.522 405.307 23.4008 397.833 29.2456 390.186C34.9169 382.199 40.46 374.047 45.8749 365.728C50.9505 357.108 55.8299 348.345 60.5133 339.438C64.7442 330.298 68.7375 321.051 72.4933 311.7C75.7663 302.197 78.8056 292.646 81.6111 283.045C83.9867 273.399 86.1776 263.761 88.1837 254.13C89.8956 244.568 91.5096 235.076 93.0254 225.657C94.4433 216.433 95.8687 207.338 97.3016 198.371C98.8702 189.713 100.556 181.233 102.358 172.929C104.515 165.033 106.887 157.356 109.474 149.897C112.566 142.906 115.933 136.156 119.576 129.648C123.799 123.629 128.309 117.86 133.106 112.34C138.445 107.302 144.034 102.494 149.871 97.9161C156.115 93.7682 162.518 89.8126 169.079 86.0493C175.837 82.6329 182.628 79.3524 189.453 76.2075C196.218 73.2813 202.881 70.423 209.442 67.6326C217.399 75.4081 225.355 82.814 233.312 89.8504C241.261 95.5896 249.213 100.469 257.17 104.489C265.126 106.457 273.079 107.332 281.028 107.113C288.984 104.715 296.941 101.321 304.897 96.9319C312.846 90.8911 320.799 84.2544 328.755 77.022C336.712 69.1711 344.664 61.3089 352.613 53.4354C360.57 46.1502 368.526 39.4418 376.483 33.3104C384.439 28.8005 392.392 25.2824 400.341 22.7559C408.297 22.3939 416.254 23.133 424.21 24.9731C432.159 28.8646 440.112 33.6348 448.068 39.2835C456.025 46.2444 463.977 53.6013 471.926 61.3542C479.883 69.2805 487.839 76.9918 495.796 84.4882C503.745 90.974 511.697 96.7019 519.654 101.672C527.61 104.749 535.567 106.759 543.523 107.701C551.472 106.434 559.425 104.115 567.381 100.744C578.716 105.081 584.482 112.004 584.678 121.514C589.837 130.949 596.65 141.062 605.12 151.854C611.289 158.076 617.959 164.536 625.132 171.233C633.156 178.39 641.527 185.765 650.245 193.36C659.424 201.361 668.722 209.548 678.142 217.919C687.546 226.622 696.819 235.461 705.959 244.436C714.602 253.636 722.875 262.917 730.779 272.276C737.77 281.748 744.226 291.239 750.146 300.749C754.897 310.259 759.034 319.735 762.556 329.178C764.864 338.492 766.587 347.726 767.726 356.882C767.816 365.826 767.465 374.646 766.674 383.342C765.195 391.751 763.491 400.013 761.56 408.128C751.696 413.007 741.937 417.811 732.284 422.54C723.083 427.17 714.233 431.778 705.733 436.364C698.131 440.949 691.053 445.553 684.5 450.176C675.548 459.807 668.394 469.675 663.04 479.781C662.821 490.935 663.651 502.455 665.528 514.341C667.127 520.721 668.726 527.226 670.325 533.855C671.675 540.71 672.78 547.675 673.64 554.749C673.813 562.027 673.549 569.387 672.848 576.831C671.151 584.425 668.907 592.076 666.117 599.784C662.203 607.582 657.734 615.406 652.711 623.257C646.64 631.123 640.102 638.989 633.096 646.855C625.297 654.683 617.201 662.482 608.808 670.249C600.014 677.934 591.141 685.567 582.189 693.146C573.305 700.612 564.561 708.011 555.956 715.341C548.293 716.601 540.631 717.721 532.969 718.701C525.306 719.334 517.644 719.772 509.982 720.013C502.319 719.84 494.657 719.463 486.995 718.882C479.332 717.947 471.67 716.868 464.008 715.647C456.345 714.236 448.683 712.784 441.021 711.291C433.358 709.836 425.696 708.452 418.034 707.14C410.371 706.076 402.709 705.179 395.047 704.447C387.384 704.1 379.722 703.961 372.06 704.029C364.397 704.504 356.735 705.167 349.073 706.02C341.41 707.173 333.748 708.433 326.086 709.798C318.423 711.284 310.761 712.766 303.099 714.244C295.436 715.601 287.774 716.849 280.112 717.988C272.449 718.81 264.787 719.448 257.125 719.9C249.462 719.945 241.8 719.783 234.138 719.414C226.483 718.652 218.824 717.732 211.162 716.653C199.163 710.839 190.535 701.883 185.279 689.786C184.291 682.101 183.209 674.394 182.032 666.663C180.546 658.903 178.853 651.146 176.953 643.394C174.57 635.663 171.908 627.963 168.966 620.294C165.452 612.714 161.647 605.195 157.552 597.736C152.891 590.421 147.97 583.192 142.789 576.05C137.171 569.097 131.375 562.253 125.402 555.518C119.172 548.995 112.875 542.592 106.51 536.309C100.107 530.261 93.7532 524.33 87.4484 518.515C81.3321 512.927 75.3591 507.444 69.5294 502.067C64.0768 496.885 58.8391 491.784 53.8163 486.761C45.4375 477.123 37.7752 467.575 30.8293 458.117C25.8744 448.532 21.3155 438.769 17.1525 428.829C14.3847 420.782 12.537 415.375 11.6094 412.607Z" stroke="url(#paint0_linear_1659_3599)" stroke-opacity="0.4" stroke-width="1.5" stroke-linecap="round" stroke-dasharray="3 6"/>
<path opacity="0.96" d="M25.5015 383.29C31.7942 375.977 38.0596 368.516 44.2977 360.904C50.404 353.019 56.3982 345.009 62.2802 336.873C67.8687 328.505 73.2752 320.038 78.4997 311.47C83.3196 302.746 87.9166 293.964 92.2909 285.125C96.2089 276.215 99.9005 267.302 103.366 258.383C106.398 249.494 109.237 240.653 111.885 231.858C114.204 223.214 116.399 214.67 118.469 206.228C120.378 198.046 122.253 190.021 124.094 182.152C125.97 174.633 127.916 167.312 129.932 160.189C132.181 153.491 134.593 147.019 137.166 140.775C143.813 129.941 151.197 119.81 159.318 110.381C169.947 103.103 181.231 96.3693 193.167 90.1811C199.717 87.5817 206.362 85.0723 213.103 82.6527C219.919 80.3519 226.714 78.0722 233.489 75.8138C240.556 83.3366 247.66 90.3782 254.803 96.9386C262.037 102.092 269.336 106.384 276.7 109.814C284.193 111.304 291.76 111.789 299.403 111.271C307.174 108.825 315.009 105.519 322.909 101.352C330.907 95.8079 338.934 89.7897 346.991 83.2973C355.086 76.3615 363.175 69.4707 371.257 62.6247C379.302 56.4036 387.305 50.7277 395.266 45.5969C403.127 41.9788 410.925 39.2596 418.659 37.4394C426.247 37.5898 433.768 38.7409 441.221 40.8929C448.535 44.925 455.794 49.7774 462.999 55.4501C470.108 62.3786 477.192 69.7136 484.251 77.455C491.29 85.4899 498.333 93.4004 505.381 101.186C512.49 108.221 519.639 114.638 526.828 120.438C534.137 124.636 541.512 127.902 548.953 130.234C556.528 130.572 564.176 129.922 571.897 128.282C582.899 135.327 589.063 143.217 590.389 151.952C596.601 160.443 604.303 169.579 613.494 179.361C619.728 185.071 626.358 191.025 633.382 197.221C641.055 203.88 648.96 210.77 657.099 217.892C665.51 225.442 673.949 233.182 682.416 241.114C690.729 249.405 698.853 257.846 706.79 266.436C714.142 275.271 721.121 284.202 727.727 293.227C733.423 302.384 738.61 311.585 743.287 320.829C746.867 330.086 749.885 339.33 752.34 348.561C753.698 357.707 754.534 366.793 754.849 375.82C754.238 384.683 753.237 393.45 751.846 402.122C749.858 410.578 747.678 418.914 745.305 427.131C735.612 430.779 726.011 434.418 716.5 438.048C707.388 441.714 698.582 445.428 690.083 449.19C682.36 453.098 675.103 457.102 668.311 461.204C658.424 470.274 650.159 479.772 643.515 489.699C641.686 501.145 640.907 513.031 641.178 525.359C642.078 531.992 643.038 538.74 644.058 545.601C644.966 552.659 645.717 559.796 646.311 567.013C646.39 574.344 646.123 581.72 645.508 589.138C644.074 596.598 642.171 604.058 639.799 611.519C636.431 618.962 632.547 626.373 628.147 633.751C622.74 641.043 616.861 648.283 610.509 655.47C603.312 662.538 595.756 669.538 587.842 676.471C579.378 683.26 570.731 689.976 561.9 696.617C552.897 703.126 543.906 709.568 534.928 715.942C527.429 716.569 519.942 717.035 512.466 717.338C505.009 717.258 497.571 716.978 490.15 716.499C482.759 715.599 475.381 714.507 468.017 713.224C460.669 711.616 453.333 709.877 446.011 708.006C438.699 705.978 431.389 703.927 424.081 701.853C416.769 699.832 409.448 697.898 402.116 696.049C394.773 694.464 387.419 693.049 380.052 691.803C372.658 690.941 365.25 690.289 357.826 689.848C350.367 689.812 342.898 689.961 335.42 690.295C327.919 690.945 320.411 691.707 312.894 692.583C305.369 693.586 297.839 694.596 290.305 695.614C282.784 696.55 275.271 697.384 267.765 698.116C260.278 698.563 252.805 698.833 245.344 698.926C237.903 698.619 230.481 698.106 223.077 697.387C215.702 696.261 208.339 694.959 200.989 693.479C189.842 687.097 182.174 677.918 177.985 665.941C177.408 658.476 176.687 650.963 175.823 643.402C174.563 635.768 173.07 628.102 171.346 620.404C169.095 612.662 166.573 604.916 163.778 597.166C160.431 589.429 156.81 581.715 152.916 574.023C148.517 566.394 143.896 558.821 139.052 551.304C133.835 543.912 128.481 536.601 122.989 529.371C117.309 522.324 111.589 515.384 105.826 508.551C100.086 501.938 94.4131 495.448 88.807 489.079C83.4101 482.959 78.1635 476.96 73.0671 471.081C68.3385 465.455 63.8172 459.945 59.503 454.552C52.4351 444.474 46.0267 434.639 40.2778 425.047C36.3653 415.894 32.8116 406.745 29.617 397.598C27.5566 390.482 26.1848 385.712 25.5015 383.29Z" stroke="url(#paint1_linear_1659_3599)" stroke-opacity="0.4" stroke-width="1.5" stroke-linecap="round" stroke-dasharray="2 4"/>
<path opacity="0.92" d="M41.9311 353.747C48.5951 346.618 55.2424 339.393 61.8732 332.069C68.3801 324.545 74.7919 316.939 81.1088 309.251C87.1482 301.425 93.0245 293.541 98.7374 285.6C104.065 277.581 109.179 269.544 114.078 261.487C118.541 253.444 122.78 245.423 126.795 237.424C130.369 229.522 133.743 221.691 136.917 213.93C139.728 206.361 142.389 198.912 144.9 191.583C147.189 184.526 149.405 177.635 151.548 170.909C155.826 158.749 160.291 147.207 164.942 136.281C171.031 127.518 177.735 119.386 185.053 111.886C194.663 106.272 204.95 101.098 215.913 96.3627C222.067 94.3799 228.366 92.4557 234.808 90.59C241.458 88.7689 248.162 86.9366 254.921 85.093C261.201 92.1545 267.564 98.6565 274.01 104.599C280.653 109.099 287.415 112.767 294.294 115.602C301.436 116.647 308.701 116.795 316.089 116.046C323.715 113.624 331.444 110.475 339.277 106.598C347.277 101.594 355.325 96.2274 363.42 90.4983C371.557 84.478 379.684 78.5515 387.802 72.7189C395.824 67.5049 403.773 62.8137 411.646 58.6451C419.324 55.8579 426.89 53.8851 434.344 52.7267C441.539 53.3444 448.605 54.8655 455.543 57.2901C462.247 61.4182 468.84 66.2962 475.323 71.9241C481.635 78.7615 487.889 86.0022 494.086 93.6461C500.236 101.672 506.389 109.652 512.545 117.587C518.777 124.985 525.077 131.905 531.444 138.346C538.008 143.46 544.68 147.782 551.461 151.311C558.492 153.086 565.651 153.954 572.938 153.915C584.347 164.393 591.422 173.952 594.164 182.591C601.394 190.633 609.911 199.265 619.715 208.487C625.962 213.853 632.5 219.439 639.331 225.246C646.618 231.491 654.039 237.945 661.594 244.608C669.252 251.668 676.863 258.907 684.425 266.325C691.704 274.07 698.75 281.956 705.563 289.984C711.756 298.245 717.559 306.598 722.972 315.045C727.505 323.625 731.548 332.247 735.102 340.91C737.637 349.611 739.659 358.311 741.166 367.011C741.666 375.666 741.704 384.283 741.278 392.86C740.022 401.335 738.42 409.746 736.473 418.092C734 426.288 731.358 434.41 728.547 442.458C719.102 445.193 709.726 447.971 700.421 450.794C691.453 453.764 682.744 456.839 674.294 460.019C666.509 463.454 659.121 467.044 652.13 470.789C641.368 479.476 632.046 488.722 624.164 498.526C620.701 510.146 618.266 522.258 616.857 534.863C616.99 541.654 617.222 548.55 617.553 555.551C617.915 562.717 618.192 569.94 618.385 577.219C618.226 584.562 617.819 591.908 617.165 599.257C615.858 606.583 614.173 613.865 612.109 621.106C609.194 628.226 605.824 635.273 602.001 642.248C597.266 649.041 592.084 655.736 586.455 662.334C579.972 668.726 573.111 675.011 565.874 681.19C557.987 687.162 549.845 693.036 541.445 698.814C532.693 704.396 523.848 709.905 514.911 715.339C507.633 715.304 500.381 715.097 493.152 714.718C485.981 713.936 478.835 712.952 471.714 711.766C464.656 710.185 457.624 708.425 450.617 706.486C443.654 704.241 436.706 701.887 429.773 699.425C422.857 696.844 415.943 694.255 409.029 691.658C402.105 689.137 395.167 686.712 388.215 684.385C381.226 682.326 374.212 680.435 367.174 678.712C360.081 677.385 352.958 676.26 345.807 675.336C338.591 674.815 331.354 674.476 324.093 674.322C316.789 674.481 309.467 674.759 302.128 675.157C294.77 675.697 287.408 676.255 280.044 676.832C272.689 677.349 265.345 677.781 258.014 678.126C250.719 678.218 243.447 678.149 236.197 677.92C228.995 677.301 221.826 676.481 214.688 675.46C207.609 674.036 200.556 672.422 193.53 670.617C183.152 663.827 176.236 654.561 172.784 642.821C172.454 635.598 171.935 628.307 171.228 620.947C170.091 613.451 168.711 605.889 167.09 598.262C164.957 590.54 162.562 582.777 159.907 574.973C156.751 567.106 153.352 559.231 149.71 551.348C145.649 543.467 141.402 535.608 136.969 527.773C132.251 520.012 127.434 512.308 122.517 504.663C117.479 497.169 112.429 489.764 107.366 482.448C102.38 475.342 97.4729 468.354 92.6439 461.483C88.0445 454.873 83.594 448.395 79.2923 442.049C71.9815 430.339 65.2726 419.031 59.1656 408.124C55.0007 398.4 51.3193 388.946 48.1212 379.762C44.972 366.747 42.9086 358.075 41.9311 353.747Z" stroke="url(#paint2_linear_1659_3599)" stroke-opacity="0.4" stroke-width="1.5" stroke-linecap="round" stroke-dasharray="1 7"/>
<path opacity="0.89" d="M61.0086 324.935C68.0034 318.26 74.9761 311.527 81.9267 304.736C88.7678 297.843 95.5125 290.915 102.161 283.95C108.554 276.915 114.788 269.869 120.862 262.812C126.568 255.745 132.072 248.689 137.372 241.643C142.234 234.665 146.874 227.728 151.294 220.832C155.27 214.065 159.035 207.38 162.59 200.777C165.761 194.377 168.761 188.094 171.589 181.929C176.409 170.584 181.033 159.721 185.46 149.34C190.056 140.762 194.941 132.744 200.114 125.285C206.915 119.618 214.341 114.421 222.391 109.694C232.62 106.136 243.454 102.777 254.892 99.6183C267.288 100.552 279.465 104.86 291.422 112.542C297.596 116.367 303.942 119.416 310.458 121.686C317.312 122.348 324.339 122.226 331.538 121.319C339.034 118.987 346.663 116.059 354.424 112.534C362.371 108.109 370.375 103.417 378.435 98.4607C386.537 93.3507 394.608 88.3616 402.65 83.4934C410.564 79.2535 418.37 75.4996 426.068 72.2314C433.505 70.2184 440.78 68.9345 447.896 68.3798C454.677 69.4194 461.282 71.2582 467.711 73.8963C473.81 78.0755 479.765 82.9411 485.577 88.4933C491.141 95.1648 496.622 102.235 502.022 109.705C507.318 117.622 512.614 125.559 517.909 133.515C523.272 141.123 528.712 148.369 534.23 155.255C539.981 161.087 545.87 166.262 551.896 170.781C558.254 173.789 564.78 175.996 571.474 177.403C582.09 186.371 588.043 194.823 589.332 202.759C594.206 209.73 600.279 217.101 607.55 224.872C612.52 229.317 617.813 233.941 623.431 238.742C629.586 243.92 635.951 249.283 642.527 254.829C649.372 260.742 656.277 266.826 663.241 273.081C670.158 279.665 676.965 286.399 683.664 293.284C689.991 300.42 696.058 307.674 701.865 315.045C707.015 322.6 711.78 330.226 716.159 337.923C719.672 345.736 722.728 353.581 725.325 361.459C726.98 369.374 728.161 377.291 728.867 385.21C728.665 393.12 728.04 401.004 726.993 408.863C725.208 416.671 723.111 424.443 720.701 432.18C717.819 439.853 714.784 447.485 711.596 455.077C702.417 457.194 693.289 459.4 684.211 461.693C675.402 464.205 666.799 466.859 658.401 469.653C650.562 472.783 643.056 476.092 635.882 479.581C629.462 483.47 623.453 487.564 617.856 491.862C609.603 501.915 602.565 512.564 596.74 523.809C595.074 530.062 593.684 536.462 592.57 543.011C591.887 549.822 591.341 556.728 590.933 563.729C590.654 570.882 590.363 578.074 590.06 585.306C589.558 592.564 588.893 599.807 588.066 607.035C586.773 614.17 585.186 621.238 583.304 628.239C580.736 635.062 577.798 641.774 574.491 648.376C570.386 654.738 565.879 660.963 560.969 667.052C555.269 672.87 549.19 678.549 542.732 684.089C535.6 689.353 528.177 694.485 520.462 699.485C512.263 704.258 503.892 708.921 495.347 713.473C488.36 712.782 481.414 711.904 474.508 710.837C467.686 709.38 460.905 707.727 454.167 705.879C447.517 703.656 440.898 701.271 434.31 698.722C427.778 695.916 421.266 693.017 414.773 690.026C408.297 686.954 401.82 683.889 395.342 680.831C388.841 677.877 382.319 675.023 375.776 672.268C369.174 669.785 362.535 667.473 355.86 665.33C349.111 663.572 342.314 662.012 335.472 660.65C328.547 659.672 321.583 658.875 314.58 658.258C307.509 657.959 300.413 657.777 293.292 657.713C286.139 657.797 278.979 657.914 271.811 658.064C264.652 658.177 257.507 658.224 250.376 658.205C243.292 657.964 236.241 657.576 229.221 657.04C222.284 656.152 215.384 655.075 208.521 653.81C201.744 652.139 195.009 650.276 188.316 648.221C178.608 641.161 172.257 631.91 169.26 620.468C169.016 613.488 168.568 606.415 167.916 599.248C166.819 591.893 165.494 584.45 163.941 576.92C161.905 569.232 159.64 561.475 157.147 553.651C154.224 545.711 151.101 537.735 147.776 529.724C144.108 521.662 140.305 513.599 136.368 505.533C132.23 497.502 128.026 489.51 123.756 481.559C119.445 473.721 115.149 465.961 110.868 458.276C106.706 450.788 102.629 443.406 98.6379 436.131C94.8986 429.118 91.3001 422.24 87.8424 415.497C82.1402 403.041 76.9746 391.033 72.3455 379.471C69.4092 369.329 66.8775 359.549 64.7505 350.129C62.8498 337.464 61.6026 329.066 61.0086 324.935Z" stroke="url(#paint3_linear_1659_3599)" stroke-opacity="0.4" stroke-width="1.5" stroke-linecap="round" stroke-dasharray="11 9"/>
<path opacity="0.85" d="M82.5541 298.02C96.9239 286.04 111.051 274.029 124.937 261.988C137.816 249.977 149.984 238.062 161.441 226.243C171.205 214.767 180.097 203.551 188.116 192.597C194.523 182.354 200.301 172.561 205.451 163.217C209.84 154.926 214.148 147.211 218.376 140.074C223.051 134.126 228.234 128.746 233.924 123.933C241.051 120.093 249.026 116.621 257.848 113.516C268.384 110.782 279.685 108.027 291.749 105.249C302.281 115.485 313.582 123.078 325.652 128.029C339.342 127.394 353.702 124.43 368.733 119.136C384.555 111.141 400.401 103.064 416.271 94.9033C431.437 89.1454 445.962 85.6124 459.846 84.3042C472.12 88.5281 483.615 95.4513 494.332 105.074C503.86 118.773 513.121 133.407 522.115 148.976C531.322 163.807 540.989 177.039 551.116 188.674C562.685 195.355 575.065 199.225 588.255 200.284C585.852 207.439 584.521 214.418 584.261 221.221C586.713 228.151 590.651 235.357 596.075 242.842C604.341 251.196 613.784 260.081 624.404 269.495C636.575 280.033 649 291.105 661.679 302.709C673.749 315.221 684.96 328.084 695.312 341.299C703.039 354.978 709.15 368.778 713.643 382.698C714.666 396.673 714.057 410.63 711.816 424.569C706.915 438.421 701.154 452.247 694.532 466.048C676.722 469.767 659.299 474.019 642.264 478.804C627.004 485.021 613 492.066 600.253 499.938C590.403 509.514 581.997 519.896 575.033 531.085C570.576 543.62 567.009 556.646 564.334 570.161C562.507 584.189 560.583 598.224 558.563 612.267C555.366 625.875 551.158 639.056 545.939 651.81C538.166 663.432 529.01 674.41 518.47 684.743C505.309 693.799 491.087 702.272 475.806 710.164C462.678 707.098 449.772 703.284 437.086 698.721C424.778 692.83 412.597 686.512 400.543 679.769C388.541 672.821 376.469 666.127 364.327 659.687C351.863 654.333 339.193 649.7 326.319 645.788C313.007 643.36 299.526 641.527 285.877 640.288C272.037 639.685 258.206 639.062 244.384 638.417C230.764 637.054 217.329 635.065 204.078 632.45C191.251 628.349 178.633 623.538 166.225 618.019C166.737 605.196 166.521 591.918 165.577 578.187C162.979 563.552 159.568 548.524 155.344 533.104C149.729 517.092 143.629 500.928 137.042 484.611C129.99 468.301 122.972 452.173 115.988 436.228C109.595 420.948 103.689 406.144 98.2701 391.814C94.0795 378.61 90.5268 366.023 87.612 354.052C85.8622 343.29 84.5506 333.076 83.6773 323.408C83.1049 310.562 82.7305 302.099 82.5541 298.02Z" stroke="url(#paint4_linear_1659_3599)" stroke-opacity="0.4" stroke-width="1.5" stroke-linecap="round" stroke-dasharray="5 7"/>
<path opacity="0.81" d="M106.081 274.187C120.567 264.104 134.787 254.112 148.74 244.21C161.688 234.55 173.947 225.029 185.514 215.648C195.439 206.627 204.506 197.829 212.716 189.254C219.313 181.218 225.243 173.508 230.508 166.123C234.864 159.481 239.031 153.244 243.01 147.411C247.172 142.409 251.709 137.81 256.62 133.614C262.752 130.117 269.665 126.879 277.359 123.899C286.77 121.19 297.03 118.452 308.141 115.686C317.993 124.445 328.736 130.793 340.371 134.728C353.759 133.876 367.841 131.146 382.619 126.538C398.129 119.942 413.605 113.425 429.047 106.989C443.651 102.855 457.52 100.706 470.655 100.54C482.014 105.226 492.493 112.291 502.092 121.738C510.331 134.902 518.209 149.035 525.727 164.136C533.336 179.014 541.375 192.712 549.844 205.23C559.793 213.744 570.633 219.83 582.362 223.486C580.513 231.46 579.873 239.337 580.442 247.117C583.733 255.077 588.388 263.271 594.409 271.698C602.864 280.78 612.245 290.238 622.553 300.074C633.895 310.635 645.285 321.516 656.722 332.715C667.256 344.402 676.889 356.235 685.62 368.215C691.803 380.326 696.489 392.436 699.675 404.546C699.713 416.565 698.285 428.54 695.39 440.469C690.097 452.367 684.013 464.316 677.139 476.316C659.67 479.652 642.482 483.538 625.574 487.973C610.08 493.828 595.626 500.483 582.211 507.939C571.277 517.039 561.626 526.911 553.257 537.558C547.227 549.49 542.11 561.892 537.905 574.761C534.816 588.113 531.863 601.471 529.043 614.834C525.644 627.743 521.565 640.217 516.806 652.255C510.103 663.113 502.248 673.289 493.242 682.785C481.883 690.876 469.452 698.312 455.948 705.092C443.74 700.794 431.795 695.792 420.112 690.087C408.854 683.229 397.717 676.029 386.702 668.489C375.717 660.887 364.63 653.565 353.439 646.523C341.853 640.556 330.011 635.272 317.915 630.668C305.308 627.476 292.49 624.858 279.461 622.812C266.183 621.422 252.899 620.059 239.609 618.721C226.531 616.81 213.648 614.356 200.961 611.36C188.791 606.979 176.873 601.902 165.207 596.131C165.53 583.787 165.143 570.936 164.047 557.578C161.485 543.224 158.274 528.429 154.413 513.195C149.532 497.304 144.349 481.218 138.864 464.936C133.23 448.599 127.755 432.401 122.438 416.342C117.818 400.877 113.699 385.841 110.081 371.234C107.602 357.681 105.69 344.715 104.347 332.336C103.973 321.141 103.949 310.505 104.274 300.427C105.2 287.122 105.802 278.376 106.081 274.187Z" stroke="url(#paint5_linear_1659_3599)" stroke-opacity="0.4" stroke-width="1.5" stroke-linecap="round"/>
<path opacity="0.77" d="M130.843 254.415C145.108 246.505 159.075 238.766 172.746 231.2C185.421 223.955 197.437 216.859 208.793 209.914C218.589 203.258 227.573 196.75 235.747 190.389C242.367 184.338 248.32 178.466 253.604 172.773C261.736 162.887 269.876 153.691 278.023 145.184C283.364 141.717 289.4 138.414 296.132 135.274C304.501 132.302 313.74 129.316 323.849 126.316C333.269 133.684 343.648 138.911 354.987 141.999C368.113 141.118 381.906 138.764 396.366 134.936C411.445 129.717 426.432 124.711 441.326 119.921C455.244 117.28 468.375 116.386 480.721 117.238C491.175 122.309 500.692 129.452 509.272 138.666C516.351 151.233 522.991 164.764 529.193 179.26C535.321 193.92 541.817 207.771 548.683 220.812C556.95 230.721 566.131 238.602 576.225 244.454C574.964 253.389 574.947 262.318 576.173 271.24C579.961 280.389 584.956 289.723 591.158 299.239C599.37 309.198 608.284 319.369 617.901 329.753C628.142 340.477 638.285 351.309 648.329 362.25C657.325 373.239 665.432 384.176 672.648 395.059C677.5 405.738 681 416.271 683.146 426.658C682.497 436.771 680.551 446.787 677.308 456.708C671.93 466.577 665.823 476.531 658.987 486.571C641.796 489.665 624.791 493.274 607.973 497.396C592.277 502.81 577.445 508.952 563.476 515.821C551.63 524.2 540.918 533.289 531.337 543.085C523.929 554.083 517.43 565.523 511.84 577.406C507.552 589.776 503.58 602.171 499.922 614.593C496.194 626.62 492.086 638.251 487.597 649.488C481.757 659.612 475.033 669.07 467.428 677.862C457.826 685.225 447.231 691.893 435.642 697.866C424.502 692.445 413.647 686.391 403.077 679.705C392.944 672.049 382.923 664.142 373.016 655.984C363.086 647.874 353.026 640.065 342.834 632.556C332.165 626.09 321.206 620.266 309.958 615.086C298.118 611.219 286.034 607.895 273.705 605.115C261.076 603.002 248.416 600.957 235.724 598.981C223.228 596.572 210.94 593.702 198.859 590.372C187.332 585.81 176.108 580.583 165.189 574.691C165.176 562.742 164.524 550.257 163.233 537.236C160.765 523.189 157.813 508.705 154.375 493.783C150.295 478.192 146.088 462.407 141.753 446.427C137.554 430.368 133.614 414.422 129.933 398.589C127.059 383.276 124.684 368.344 122.808 353.794C122.006 340.2 121.708 327.13 121.914 314.585C122.941 303.121 124.24 292.18 125.812 281.764C128.372 267.905 130.049 258.789 130.843 254.415Z" stroke="url(#paint6_linear_1659_3599)" stroke-opacity="0.4" stroke-width="1.5" stroke-linecap="round" stroke-dasharray="9 3"/>
<path opacity="0.73" d="M155.924 239.468C169.617 233.818 182.997 228.376 196.063 223.143C208.175 218.235 219.666 213.446 230.536 208.778C239.994 204.266 248.705 199.807 256.669 195.399C268.017 186.8 277.982 178.314 286.564 169.939C294.63 162.221 303.87 154.748 314.283 147.522C321.781 144.123 330.111 140.721 339.273 137.318C348.454 143.43 358.613 147.714 369.753 150.17C382.621 149.428 396.084 147.572 410.142 144.602C424.689 140.739 439.073 137.173 453.292 133.904C466.449 132.624 478.783 132.867 490.294 134.632C499.864 140.003 508.475 147.167 516.126 156.122C522.177 168.035 527.728 180.887 532.778 194.676C537.578 208.914 542.654 222.641 548.005 235.856C554.616 246.744 562.105 255.992 570.471 263.602C569.718 273.567 570.141 283.605 571.741 293.715C575.642 304.069 580.565 314.553 586.51 325.168C594.047 336.006 602.091 346.906 610.64 357.868C619.518 368.81 628.204 379.662 636.698 390.424C644.134 400.847 650.734 411.039 656.499 421C660.161 430.429 662.637 439.58 663.927 448.453C662.819 456.848 660.588 465.077 657.236 473.139C652.014 481.078 646.138 489.088 639.606 497.169C622.653 500.012 605.826 503.291 589.123 507.005C573.339 511.83 558.272 517.281 543.922 523.356C531.394 530.756 519.869 538.784 509.345 547.441C500.81 557.193 493.164 567.369 486.409 577.968C481.049 589.077 476.144 600.247 471.694 611.479C467.567 622.446 463.315 633.095 458.94 643.424C453.757 652.787 447.947 661.548 441.511 669.707C433.516 676.53 424.667 682.663 414.965 688.105C405.014 681.706 395.354 674.766 385.985 667.285C377.037 659.02 368.183 650.583 359.421 641.973C350.577 633.515 341.561 625.371 332.371 617.541C322.659 610.698 312.625 604.452 302.27 598.804C291.264 594.364 279.986 590.433 268.433 587.01C256.524 584.251 244.563 581.588 232.55 579.022C220.694 576.163 209.038 572.933 197.582 569.33C186.695 564.655 176.14 559.37 165.917 553.476C165.534 541.837 164.626 529.668 163.194 516.968C160.88 503.297 158.255 489.219 155.318 474.733C152.085 459.651 148.879 444.4 145.699 428.979C142.89 413.491 140.42 398.113 138.289 382.845C137.035 368.032 136.283 353.552 136.031 339.407C136.791 326.088 138.007 313.219 139.678 300.801C142.056 289.329 144.655 278.306 147.475 267.731C151.76 253.431 154.576 244.01 155.924 239.468Z" stroke="url(#paint7_linear_1659_3599)" stroke-opacity="0.4" stroke-width="1.5" stroke-linecap="round" stroke-dasharray="6 2"/>
<path opacity="0.7" d="M180.332 229.659C193.158 226.199 205.678 222.942 217.891 219.888C229.22 217.088 239.996 214.352 250.218 211.68C259.193 209.005 267.513 206.277 275.18 203.497C286.469 197.262 296.496 190.702 305.262 183.816C313.216 176.166 322.091 168.436 331.889 160.623C338.733 156.716 346.333 152.814 354.689 148.917C363.762 153.971 373.791 157.522 384.774 159.572C397.332 159.118 410.402 157.861 423.986 155.8C437.881 153.248 451.55 151.044 464.995 149.189C477.317 149.122 488.808 150.368 499.469 152.927C508.192 158.535 515.952 165.672 522.75 174.336C527.905 185.585 532.508 197.711 536.56 210.716C540.205 224.365 544.016 237.744 547.993 250.853C553.025 262.309 558.857 272.5 565.49 281.426C565.045 292.399 565.654 303.489 567.318 314.697C570.924 326.135 575.356 337.644 580.613 349.225C587.087 360.827 593.911 372.35 601.083 383.795C608.368 394.919 615.422 405.789 622.244 416.405C628.06 426.368 633.142 435.946 637.49 445.14C640.034 453.532 641.586 461.538 642.147 469.157C640.694 476.109 638.306 482.817 634.984 489.282C630.094 495.515 624.624 501.777 618.573 508.069C601.9 510.541 585.328 513.349 568.855 516.492C553.144 520.519 538.045 525.067 523.558 530.135C510.633 536.318 498.591 543.045 487.431 550.317C478.082 558.591 469.574 567.264 461.907 576.336C455.691 585.95 450.005 595.677 444.851 605.517C440.32 615.26 435.859 624.78 431.468 634.076C426.735 642.63 421.616 650.685 416.112 658.242C409.49 664.619 402.187 670.364 394.204 675.478C385.525 668.292 377.13 660.656 369.019 652.571C361.281 643.882 353.607 635.1 345.997 626.225C338.237 617.585 330.279 609.258 322.124 601.243C313.379 594.148 304.291 587.6 294.862 581.599C284.739 576.694 274.317 572.255 263.596 568.283C252.477 564.953 241.278 561.749 229.998 558.673C218.831 555.419 207.846 551.878 197.042 548.05C186.8 543.32 176.9 538.056 167.342 532.259C166.642 520.866 165.548 508.992 164.057 496.635C161.992 483.423 159.774 469.869 157.401 455.973C155.03 441.595 152.808 427.093 150.737 412.467C149.221 397.836 148.097 383.315 147.363 368.902C147.56 354.908 148.249 341.208 149.43 327.802C151.566 315.088 154.119 302.751 157.091 290.789C160.698 279.587 164.495 268.754 168.482 258.292C174.467 243.837 178.417 234.293 180.332 229.659Z" stroke="url(#paint8_linear_1659_3599)" stroke-opacity="0.4" stroke-width="1.5" stroke-linecap="round" stroke-dasharray="5 6"/>
<path opacity="0.66" d="M203.176 224.913C214.94 223.422 226.419 222.096 237.613 220.934C248.042 219.921 257.998 218.902 267.481 217.877C275.921 216.691 283.823 215.358 291.187 213.878C302.53 209.474 312.791 204.389 321.97 198.626C330.266 190.957 339.263 182.934 348.961 174.556C355.387 170.165 362.463 165.775 370.189 161.387C379.242 165.626 389.177 168.669 399.992 170.515C412.173 170.493 424.767 169.917 437.773 168.788C450.907 167.472 463.771 166.528 476.365 165.958C487.782 166.974 498.387 169.101 508.178 172.338C516.086 178.132 523.051 185.203 529.071 193.549C533.457 204.129 537.255 215.508 540.464 227.685C543.109 240.617 545.821 253.464 548.602 266.224C552.187 277.891 556.453 288.627 561.401 298.431C561.029 310.257 561.537 322.225 562.924 334.334C565.875 346.621 569.458 358.914 573.673 371.214C578.764 383.343 584.079 395.286 589.62 407.045C595.144 418.228 600.43 429.041 605.48 439.483C609.637 449.024 613.184 458.078 616.12 466.645C616.646 480.433 614.817 493.031 610.633 504.439C606.115 509.279 601.122 514.088 595.656 518.867C579.377 520.78 563.205 522.921 547.14 525.292C531.739 528.339 516.864 531.791 502.515 535.649C489.525 540.433 477.307 545.688 465.863 551.413C456.037 558.03 446.998 565.03 438.745 572.412C431.897 580.378 425.619 588.511 419.911 596.811C415.012 605.183 410.324 613.447 405.846 621.603C401.39 629.271 396.748 636.562 391.919 643.478C386.389 649.464 380.361 654.911 373.835 659.818C366.477 652.042 359.379 643.913 352.54 635.432C346.014 626.525 339.512 617.586 333.035 608.612C326.339 599.937 319.42 591.565 312.276 583.497C304.507 576.279 296.381 569.552 287.898 563.317C278.69 558.054 269.168 553.217 259.333 548.805C249.051 545.001 238.666 541.336 228.179 537.81C217.741 534.218 207.456 530.417 197.327 526.405C187.729 521.671 178.466 516.482 169.539 510.837C168.635 499.701 167.468 488.152 166.038 476.19C164.322 463.548 162.586 450.648 160.829 437.489C159.308 423.998 158.023 410.447 156.974 396.835C156.611 383.298 156.667 369.877 157.143 356.573C158.555 343.678 160.445 331.035 162.813 318.647C166.082 306.828 169.737 295.318 173.78 284.115C178.419 273.501 183.234 263.163 188.226 253.1C195.746 238.904 200.729 229.508 203.176 224.913Z" stroke="url(#paint9_linear_1659_3599)" stroke-opacity="0.4" stroke-width="1.5" stroke-linecap="round" stroke-dasharray="2 2"/>
<path opacity="0.62" d="M223.751 224.717C234.368 224.879 244.741 225.141 254.871 225.503C264.378 225.899 273.507 226.221 282.258 226.469C290.198 226.414 297.717 226.138 304.814 225.642C316.353 222.637 327.031 218.707 336.848 213.852C345.86 206.241 355.386 198.062 365.425 189.315C371.672 184.57 378.439 179.807 385.726 175.026C394.762 178.686 404.574 181.436 415.159 183.275C426.878 183.771 438.896 183.923 451.212 183.729C463.504 183.564 475.48 183.769 487.141 184.345C497.619 186.3 507.312 189.182 516.221 192.991C523.342 198.903 529.56 205.874 534.877 213.904C538.59 223.808 541.701 234.424 544.212 245.751C546.039 257.882 547.832 270.053 549.59 282.265C551.885 293.834 554.733 304.76 558.133 315.042C557.573 327.488 557.696 340.062 558.504 352.762C560.497 365.559 562.947 378.296 565.856 390.971C569.364 403.326 572.998 415.41 576.757 427.226C580.414 438.3 583.861 448.918 587.097 459.08C589.597 468.209 591.608 476.784 593.131 484.804C592.063 497.136 589.2 508.133 584.542 517.795C580.363 521.577 575.813 525.276 570.894 528.893C555.235 530.035 539.698 531.32 524.282 532.747C509.459 534.641 495.102 536.855 481.208 539.391C468.483 542.672 456.431 546.354 445.054 550.437C435.105 555.32 425.866 560.573 417.335 566.197C410.117 572.433 403.468 578.89 397.387 585.57C392.192 592.488 387.297 599.403 382.701 606.316C378.376 613.004 374.027 619.458 369.654 625.679C359.21 629.526 348.343 626.259 337.054 615.879C331.697 606.942 326.322 598.026 320.93 589.129C315.265 580.554 309.353 572.269 303.194 564.274C296.38 557.049 289.199 550.254 281.652 543.891C273.376 538.383 264.781 533.256 255.866 528.511C246.466 524.324 236.937 520.289 227.278 516.406C217.609 512.535 208.063 508.52 198.639 504.362C189.674 499.664 181.027 494.592 172.697 489.147C171.745 478.304 170.657 467.149 169.435 455.681C168.147 443.731 166.95 431.616 165.845 419.335C165.117 406.902 164.687 394.473 164.554 382.051C165.16 369.772 166.193 357.638 167.652 345.649C170.025 334.052 172.847 322.678 176.118 311.528C180.24 300.854 184.721 290.422 189.561 280.232C194.956 270.483 200.533 260.929 206.29 251.569C215.05 238.088 220.87 229.137 223.751 224.717Z" stroke="url(#paint10_linear_1659_3599)" stroke-opacity="0.4" stroke-width="1.5" stroke-linecap="round" stroke-dasharray="7 3"/>
<path opacity="0.58" d="M241.708 228.301C251.194 229.723 260.495 231.186 269.614 232.692C278.262 234.116 286.642 235.41 294.754 236.574C302.265 237.327 309.472 237.814 316.375 238.034C328.26 236.126 339.51 233.136 350.125 229.065C360.106 221.73 370.443 213.678 381.135 204.907C387.386 199.988 394.033 195.03 401.077 190.033C410.042 193.343 419.657 195.99 429.921 197.975C441.067 199.06 452.403 199.958 463.929 200.666C475.281 201.542 486.29 202.767 496.955 204.343C506.464 207.098 515.231 210.609 523.256 214.877C529.613 220.858 535.125 227.694 539.792 235.387C542.933 244.635 545.472 254.498 547.409 264.974C548.58 276.242 549.622 287.637 550.535 299.158C551.748 310.372 553.368 321.171 555.395 331.556C554.394 344.296 553.896 357.127 553.899 370.049C554.729 382.947 555.868 395.735 557.314 408.413C559.135 420.635 561.011 432.536 562.943 444.116C564.749 454.844 566.372 465.087 567.811 474.843C568.679 483.49 569.185 491.569 569.328 499.082C566.616 510.281 562.619 520.093 557.336 528.518C553.382 531.57 549.166 534.491 544.687 537.281C529.906 537.5 515.261 537.784 500.754 538.134C486.809 538.815 473.267 539.731 460.127 540.883C447.995 542.644 436.443 544.747 425.471 547.19C415.721 550.357 406.59 553.878 398.079 557.753C390.759 562.267 383.963 567.042 377.693 572.079C372.317 577.497 367.275 583.015 362.567 588.634C358.287 594.26 354.088 599.791 349.97 605.228C341.106 608.376 332.155 604.669 323.119 594.107C318.863 585.317 314.548 576.581 310.176 567.899C305.476 559.562 300.515 551.491 295.292 543.686C289.404 536.56 283.149 529.808 276.527 523.431C269.176 517.786 261.506 512.472 253.517 507.489C245.025 503.017 236.384 498.699 227.591 494.535C218.725 490.446 209.941 486.273 201.239 482.017C192.916 477.374 184.877 472.436 177.119 467.206C176.292 456.761 175.431 446.114 174.535 435.265C173.755 424.137 173.128 412.944 172.655 401.685C172.662 390.433 172.985 379.246 173.623 368.126C175.01 357.244 176.804 346.528 179.004 335.979C182.062 325.806 185.533 315.837 189.416 306.071C194.081 296.714 199.079 287.541 204.41 278.55C210.271 269.891 216.316 261.352 222.542 252.935C232.128 240.596 238.516 232.385 241.708 228.301Z" stroke="url(#paint11_linear_1659_3599)" stroke-opacity="0.4" stroke-width="1.5" stroke-linecap="round" stroke-dasharray="5 2"/>
<path opacity="0.54" d="M257.04 234.675C265.507 236.969 273.855 239.258 282.083 241.543C290.011 243.649 297.763 245.59 305.338 247.365C312.529 248.673 319.525 249.692 326.325 250.42C338.653 249.396 350.562 247.249 362.05 243.978C367.517 241.051 372.998 237.805 378.493 234.239C384.145 230.122 389.946 225.792 395.896 221.249C402.276 216.407 408.935 211.493 415.874 206.508C424.673 209.667 433.984 212.373 443.806 214.626C454.265 216.325 464.811 217.942 475.446 219.475C485.787 221.269 495.77 223.38 505.394 225.808C513.917 229.212 521.751 233.225 528.896 237.848C534.511 243.826 539.352 250.489 543.419 257.836C546.064 266.444 548.122 275.571 549.592 285.219C550.243 295.591 550.7 306.136 550.962 316.853C551.302 327.511 551.902 337.933 552.763 348.12C551.144 360.764 549.86 373.444 548.911 386.161C548.492 398.76 548.257 411.191 548.206 423.455C548.357 435.196 548.52 446.581 548.693 457.608C548.728 467.761 548.618 477.421 548.365 486.59C547.697 494.675 546.774 502.206 545.597 509.181C541.206 519.444 535.971 528.35 529.892 535.898C526.01 538.499 521.964 540.932 517.756 543.198C504.116 542.401 490.636 541.624 477.315 540.867C464.504 540.323 452.046 539.961 439.94 539.78C428.691 540.09 417.921 540.696 407.629 541.598C398.372 543.156 389.637 545.048 381.423 547.273C374.223 550.142 367.492 553.302 361.229 556.751C351.255 565.088 342.005 573.731 333.479 582.68C325.768 585.064 318.381 581.003 311.316 570.497C308.066 562.003 304.723 553.59 301.286 545.261C297.477 537.271 293.396 529.517 289.045 521.997C284.028 515.067 278.655 508.452 272.926 502.152C266.496 496.483 259.748 491.09 252.681 485.975C245.1 481.315 237.355 476.805 229.446 472.445C221.402 468.195 213.4 463.912 205.44 459.597C197.769 455.017 190.335 450.227 183.138 445.226C182.591 435.325 182.086 425.323 181.621 415.218C181.379 405.047 181.329 394.898 181.469 384.772C182.119 374.789 183.076 364.926 184.342 355.183C186.304 345.76 188.643 336.513 191.358 327.441C194.83 318.756 198.676 310.255 202.895 301.937C207.803 293.976 213.014 286.158 218.53 278.485C224.544 271.045 230.743 263.684 237.127 256.4C247.067 245.544 253.705 238.303 257.04 234.675Z" stroke="url(#paint12_linear_1659_3599)" stroke-opacity="0.4" stroke-width="1.5" stroke-linecap="round" stroke-dasharray="7 3"/>
<path opacity="0.51" d="M270.097 242.823C277.716 245.657 285.284 248.445 292.803 251.186C300.163 253.696 307.435 256.027 314.617 258.18C321.582 259.853 328.444 261.235 335.201 262.326C347.989 262.109 360.534 260.796 372.836 258.386C378.826 255.922 384.829 253.13 390.846 250.008C396.953 246.323 403.157 242.403 409.455 238.248C416.02 233.746 422.769 229.137 429.701 224.42C438.201 227.586 447.074 230.463 456.318 233.049C465.957 235.333 475.604 237.615 485.259 239.896C494.539 242.455 503.454 245.294 512.004 248.412C519.529 252.327 526.429 256.715 532.705 261.578C537.604 267.496 541.811 273.949 545.326 280.938C547.532 288.921 549.184 297.329 550.283 306.161C550.554 315.637 550.575 325.301 550.345 335.152C550.006 345.096 549.802 354.931 549.733 364.658C547.398 376.808 545.262 388.938 543.324 401.048C541.669 412.933 540.11 424.62 538.647 436.11C537.255 447.023 535.848 457.577 534.427 467.771C532.877 477.114 531.216 485.985 529.446 494.385C524.825 507.669 519.682 519.467 514.018 529.778C506.714 535.968 499.065 541.349 491.07 545.92C478.839 544.122 466.762 542.316 454.84 540.5C443.388 538.827 432.232 537.298 421.372 535.912C411.216 534.937 401.449 534.216 392.071 533.747C383.524 533.866 375.404 534.295 367.711 535.033C355.103 538.657 343.545 543.091 333.036 548.336C319.82 554.972 309.54 554.059 302.196 545.596C299.839 537.539 297.356 529.573 294.749 521.698C291.739 514.141 288.457 506.793 284.903 499.654C280.703 493 276.168 486.608 271.297 480.479C265.739 474.866 259.881 469.488 253.723 464.345C247.057 459.592 240.208 454.974 233.178 450.491C225.967 446.155 218.762 441.815 211.563 437.471C204.55 432.973 197.726 428.337 191.089 423.561C190.949 414.355 190.892 405.152 190.917 395.952C191.222 386.842 191.723 377.829 192.421 368.911C193.602 360.251 195.066 351.749 196.813 343.405C199.167 335.432 201.849 327.645 204.859 320.044C208.513 312.823 212.488 305.775 216.784 298.897C221.675 292.324 226.833 285.875 232.256 279.55C238.137 273.387 244.194 267.269 250.429 261.196C260.234 252.034 266.79 245.909 270.097 242.823Z" stroke="url(#paint13_linear_1659_3599)" stroke-opacity="0.4" stroke-width="1.5" stroke-linecap="round" stroke-dasharray="8 10"/>
<path opacity="0.47" d="M281.533 251.865C288.507 254.969 295.477 258.003 302.442 260.968C309.381 263.688 316.292 266.228 323.173 268.588C329.988 270.505 336.763 272.149 343.499 273.521C356.664 274.091 369.726 273.658 382.686 272.221C389.097 270.337 395.517 268.145 401.945 265.644C408.428 262.583 414.96 259.281 421.542 255.74C428.281 251.822 435.125 247.768 442.073 243.577C450.102 246.852 458.382 249.961 466.914 252.904C475.64 255.717 484.304 258.573 492.905 261.47C501.082 264.655 508.905 268.071 516.373 271.716C522.904 275.98 528.881 280.61 534.304 285.605C538.512 291.403 542.11 297.604 545.097 304.208C546.927 311.577 548.243 319.284 549.047 327.33C549.032 335.917 548.744 344.684 548.182 353.632C547.36 362.761 546.567 371.865 545.804 380.946C542.753 392.216 539.79 403.413 536.916 414.539C534.158 425.362 531.426 435.964 528.72 446.346C526.012 456.151 523.272 465.611 520.498 474.727C517.617 483.065 514.657 490.975 511.619 498.458C504.886 510.325 497.852 520.899 490.515 530.181C482.398 535.858 474.16 540.792 465.802 544.983C455.14 542.29 444.628 539.58 434.267 536.851C424.303 534.23 414.583 531.725 405.105 529.335C396.178 527.286 387.555 525.456 379.235 523.847C371.565 522.757 364.213 521.95 357.179 521.426C345.317 522.445 334.292 524.308 324.104 527.014C311.463 530.987 302.164 528.696 296.206 520.14C294.61 512.618 292.868 505.191 290.982 497.859C288.67 490.8 286.093 483.921 283.251 477.221C279.804 470.921 276.039 464.83 271.957 458.949C267.245 453.484 262.242 448.207 256.947 443.117C251.165 438.359 245.201 433.72 239.054 429.203C232.687 424.831 226.287 420.476 219.853 416.139C213.518 411.746 207.314 407.266 201.243 402.698C201.587 394.364 202.027 386.107 202.562 377.926C203.39 369.969 204.395 362.157 205.576 354.49C207.175 347.153 209.012 340.006 211.089 333.05C213.671 326.464 216.519 320.073 219.631 313.879C223.275 308.038 227.18 302.359 231.346 296.843C236.002 291.59 240.881 286.443 245.984 281.401C251.486 276.484 257.154 271.594 262.988 266.729C272.215 259.325 278.397 254.37 281.533 251.865Z" stroke="url(#paint14_linear_1659_3599)" stroke-opacity="0.4" stroke-width="1.5" stroke-linecap="round" stroke-dasharray="2 8"/>
<path opacity="0.43" d="M292.145 261.152C305.197 267.37 318.363 273.123 331.643 278.408C345.013 282.119 358.378 284.807 371.739 286.472C385.065 285.819 398.397 284.008 411.734 281.037C425.178 276.015 438.767 270.22 452.499 263.65C467.598 270.352 482.763 277.017 497.993 283.644C511.436 291.279 523.23 299.843 533.375 309.336C539.423 321.129 543.475 334.051 545.532 348.102C544.559 363.859 542.894 380.007 540.535 396.546C533.187 416.458 525.847 435.678 518.515 454.205C510.967 470.552 503.238 485.533 495.328 499.148C486.98 509.79 478.449 518.999 469.733 526.775C460.81 532.124 451.92 536.626 443.065 540.283C425.316 533.456 408.204 526.793 391.731 520.295C376.902 514.947 362.994 510.483 350.008 506.901C338.878 505.46 328.581 505.107 319.118 505.843C310.964 508.516 303.208 511.912 295.851 516.031C294.354 501.96 292.479 488.101 290.227 474.455C286.301 461.743 281.274 449.657 275.145 438.195C266.755 428.007 257.457 418.327 247.251 409.154C236.056 400.547 224.898 391.915 213.778 383.256C215.643 368.883 217.999 355.112 220.845 341.943C225.03 330.245 229.999 319.299 235.752 309.106C243.12 300.228 251.249 291.826 260.139 283.899C275.901 272.559 286.57 264.977 292.145 261.152Z" stroke="url(#paint15_linear_1659_3599)" stroke-opacity="0.4" stroke-width="1.5" stroke-linecap="round"/>
<path opacity="0.39" d="M302.781 270.288C315.143 276.472 327.707 282.255 340.474 287.638C353.541 291.735 366.7 294.996 379.951 297.42C393.308 297.957 406.694 297.514 420.106 296.089C433.553 292.853 447.035 288.871 460.551 284.142C473.943 291.248 487.164 298.435 500.215 305.703C511.504 313.814 521.353 322.604 529.763 332.071C534.725 343.173 537.986 355.081 539.547 367.795C538.355 381.813 536.372 396.207 533.599 410.975C525.21 427.946 516.701 444.197 508.072 459.73C499.14 473.285 490.058 485.694 480.824 496.956C471.34 505.808 461.79 513.523 452.172 520.101C442.608 524.768 433.179 528.761 423.886 532.081C409.351 524.323 395.283 516.715 381.683 509.257C369.223 502.761 357.384 497.01 346.164 492.003C336.184 488.838 326.769 486.662 317.919 485.474C309.983 486.181 302.361 487.69 295.052 490.002C294.691 477.213 293.869 464.641 292.587 452.287C289.704 440.693 285.825 429.57 280.952 418.918C274.062 409.223 266.336 399.923 257.776 391.02C248.18 382.607 238.482 374.242 228.681 365.926C231.428 353.85 234.554 342.44 238.059 331.699C242.532 322.418 247.561 313.834 253.144 305.946C259.887 299.236 267.183 292.936 275.033 287.046C288.702 278.697 297.952 273.111 302.781 270.288Z" stroke="url(#paint16_linear_1659_3599)" stroke-opacity="0.4" stroke-width="1.5" stroke-linecap="round" stroke-dasharray="9 6"/>
<path opacity="0.35" d="M314.109 279.248C325.837 285.317 337.793 291.07 349.978 296.507C362.526 300.968 375.2 304.785 388 307.958C400.951 309.655 413.937 310.57 426.958 310.702C439.976 309.313 452.964 307.243 465.92 304.494C477.428 311.846 488.613 319.325 499.474 326.93C508.675 335.175 516.665 343.897 523.445 353.095C527.393 363.398 529.932 374.251 531.063 385.653C529.799 397.991 527.723 410.645 524.835 423.616C515.876 437.418 506.748 450.526 497.449 462.939C487.827 473.673 478.082 483.479 468.214 492.358C458.191 499.37 448.163 505.526 438.129 510.827C428.24 514.695 418.512 518.054 408.947 520.905C397.376 512.727 386.114 504.687 375.161 496.786C364.909 489.664 355.025 483.143 345.51 477.223C336.739 472.817 328.299 469.25 320.191 466.521C312.638 465.485 305.282 465.232 298.121 465.76C298.572 454.347 298.526 443.132 297.983 432.115C295.962 421.667 293.067 411.564 289.299 401.806C283.786 392.721 277.523 383.932 270.509 375.441C262.481 367.338 254.25 359.317 245.817 351.38C249.26 341.657 252.954 332.589 256.9 324.176C261.474 317.08 266.4 310.587 271.679 304.698C277.703 299.804 284.095 295.253 290.856 291.044C302.332 285.165 310.083 281.233 314.109 279.248Z" stroke="url(#paint17_linear_1659_3599)" stroke-opacity="0.4" stroke-width="1.5" stroke-linecap="round" stroke-dasharray="5 8"/>
<path opacity="0.32" d="M326.58 288.282C337.567 294.2 348.762 299.895 360.163 305.368C371.898 310.137 383.755 314.446 395.733 318.294C407.85 321.04 419.997 323.197 432.174 324.764C444.318 325.109 456.409 324.878 468.448 324.071C477.969 331.448 487.088 338.95 495.803 346.578C503.049 354.662 509.307 363.05 514.578 371.741C517.596 381.141 519.488 390.891 520.253 400.992C519.009 411.718 517.005 422.68 514.241 433.878C505.232 444.5 496.047 454.505 486.686 463.894C477.03 471.928 467.274 479.248 457.418 485.852C447.459 491.083 437.505 495.696 427.556 499.691C417.759 502.676 408.096 505.295 398.569 507.548C389.573 499.423 380.744 491.416 372.082 483.527C363.792 476.249 355.679 469.429 347.745 463.068C340.167 457.874 332.744 453.348 325.477 449.487C318.471 447.023 311.555 445.241 304.729 444.142C305.696 434.15 306.17 424.312 306.15 414.627C304.815 405.359 302.744 396.316 299.938 387.498C295.663 379.137 290.743 370.976 285.178 363.016C278.658 355.361 271.875 347.784 264.827 340.286C268.731 332.855 272.767 326 276.934 319.72C286.536 310.723 296.743 302.876 307.558 296.178C316.971 292.239 323.312 289.607 326.58 288.282Z" stroke="url(#paint18_linear_1659_3599)" stroke-opacity="0.4" stroke-width="1.5" stroke-linecap="round" stroke-dasharray="8 3"/>
<path opacity="0.28" d="M340.242 297.796C350.278 303.539 360.474 309.139 370.831 314.597C381.441 319.585 392.14 324.258 402.927 328.615C413.812 332.205 424.715 335.374 435.634 338.119C446.51 339.953 457.332 341.331 468.101 342.253C475.615 349.395 482.722 356.632 489.421 363.966C494.882 371.598 499.567 379.41 503.477 387.399C505.669 395.794 506.988 404.397 507.434 413.209C506.286 422.389 504.474 431.729 501.999 441.229C493.436 448.861 484.718 455.998 475.845 462.641C466.732 468.233 457.538 473.313 448.262 477.882C438.897 481.48 429.53 484.656 420.161 487.411C410.885 489.477 401.701 491.309 392.609 492.906C385.734 485.218 378.919 477.625 372.165 470.127C365.531 463.072 358.951 456.346 352.426 449.948C345.989 444.389 339.594 439.319 333.24 434.74C324.393 425.72 318.86 414.273 316.642 400.399C315.849 392.288 314.459 384.322 312.471 376.499C309.301 368.955 305.592 361.538 301.344 354.248C295.472 341.017 294.237 329.132 297.638 318.593C306.474 312.486 315.56 307.222 324.894 302.802C332.509 300.298 337.625 298.629 340.242 297.796Z" stroke="url(#paint19_linear_1659_3599)" stroke-opacity="0.4" stroke-width="1.5" stroke-linecap="round" stroke-dasharray="4 3"/>
<path opacity="0.24" d="M354.72 308.258C363.557 313.763 372.491 319.181 381.521 324.51C390.695 329.549 399.925 334.391 409.212 339.037C418.554 343.178 427.896 347.036 437.238 350.611C446.539 353.558 455.787 356.171 464.98 358.448C470.578 365.09 475.808 371.791 480.67 378.552C484.557 385.478 487.863 392.495 490.588 399.602C492.055 406.912 492.889 414.326 493.09 421.841C492.07 429.555 490.522 437.354 488.445 445.239C480.749 450.267 472.934 454.921 465.002 459.2C456.889 462.745 448.708 465.938 440.459 468.779C432.122 470.985 423.775 472.914 415.417 474.566C407.082 475.794 398.794 476.868 390.555 477.79C385.326 470.837 380.093 463.949 374.855 457.127C369.594 450.591 364.312 444.277 359.009 438.183C353.648 432.634 348.261 427.417 342.848 422.533C335.213 413.082 330.568 402.164 328.914 389.78C328.538 382.835 327.693 375.966 326.378 369.173C324.156 362.528 321.513 355.95 318.449 349.44C318.458 333.173 322.413 321.673 330.315 314.938C342.479 311.501 350.614 309.274 354.72 308.258Z" stroke="url(#paint20_linear_1659_3599)" stroke-opacity="0.4" stroke-width="1.5" stroke-linecap="round" stroke-dasharray="11 9"/>
<path opacity="0.2" d="M369.331 320.101C384.159 330.257 399.116 340.086 414.203 349.59C429.349 357.908 444.401 365.438 459.36 372.182C466.478 384.011 472.181 395.964 476.467 408.041C477.343 420.434 476.537 432.974 474.049 445.663C460.855 450.997 447.401 455.381 433.687 458.815C419.665 460.687 405.613 462.047 391.529 462.895C383.496 450.921 375.289 439.278 366.907 427.964C358.089 417.947 349.042 408.822 339.764 400.588C341.497 388.838 341.938 377.201 341.087 365.677C337.614 354.39 333.055 343.197 327.411 332.098C334.775 328.533 341.987 325.671 349.046 323.511C359.222 321.737 365.984 320.6 369.331 320.101Z" stroke="url(#paint21_linear_1659_3599)" stroke-opacity="0.4" stroke-width="1.5" stroke-linecap="round" stroke-dasharray="10 1"/>
<path opacity="0.16" d="M383.045 333.502C394.499 342.556 405.976 351.444 417.476 360.165C428.926 368.262 440.296 375.91 451.586 383.112C455.904 392.939 459.28 402.785 461.713 412.649C461.989 422.548 461.188 432.471 459.308 442.42C448.923 444.856 438.366 446.744 427.636 448.085C416.662 448.564 405.608 448.761 394.473 448.677C388.342 438.734 382.022 428.954 375.513 419.335C368.586 410.374 361.443 401.877 354.082 393.844C355.582 384.529 356.207 375.227 355.958 365.939C355.385 351.302 358.817 340.863 366.253 334.623C374.713 334.035 380.31 333.661 383.045 333.502Z" stroke="url(#paint22_linear_1659_3599)" stroke-opacity="0.4" stroke-width="1.5" stroke-linecap="round" stroke-dasharray="6 6"/>
<path opacity="0.13" d="M394.721 348.427C402.722 355.896 410.697 363.284 418.646 370.592C426.511 377.623 434.318 384.448 442.068 391.065C444.23 398.576 445.846 406.059 446.915 413.514C442.416 424.883 434.135 432.598 422.072 436.657C414.228 436.325 406.312 435.857 398.323 435.253C393.771 427.514 389.085 419.837 384.263 412.221C379.156 404.862 373.899 397.696 368.493 390.722C369.657 383.751 370.304 376.757 370.435 369.741C381.667 356.359 389.763 349.254 394.721 348.427Z" stroke="url(#paint23_linear_1659_3599)" stroke-opacity="0.4" stroke-width="1.5" stroke-linecap="round" stroke-dasharray="2 7"/>
<path opacity="0.09" d="M403.22 364.512C412.688 375.203 422.032 385.7 431.252 396.003C426.908 410.486 417.195 419.318 402.113 422.499C395.816 411.785 389.249 401.194 382.413 390.725C391.449 375.083 398.385 366.345 403.22 364.512Z" stroke="url(#paint24_linear_1659_3599)" stroke-opacity="0.4" stroke-width="1.5" stroke-linecap="round" stroke-dasharray="4 5"/>
<defs>
<linearGradient id="paint0_linear_1659_3599" x1="11.6094" y1="-34147.3" x2="75624.6" y2="-34147.3" gradientUnits="userSpaceOnUse">
<stop stop-color="#4B91E2"/>
<stop offset="1" stop-color="#8896DD"/>
</linearGradient>
<linearGradient id="paint1_linear_1659_3599" x1="2373.18" y1="-32856.6" x2="74893.5" y2="-27734.6" gradientUnits="userSpaceOnUse">
<stop stop-color="#4B91E2"/>
<stop offset="1" stop-color="#8896DD"/>
</linearGradient>
<linearGradient id="paint2_linear_1659_3599" x1="4551.46" y1="-31411.4" x2="73648.9" y2="-21602" gradientUnits="userSpaceOnUse">
<stop stop-color="#4B91E2"/>
<stop offset="1" stop-color="#8896DD"/>
</linearGradient>
<linearGradient id="paint3_linear_1659_3599" x1="6538.07" y1="-29836.5" x2="71923.5" y2="-15795.2" gradientUnits="userSpaceOnUse">
<stop stop-color="#4B91E2"/>
<stop offset="1" stop-color="#8896DD"/>
</linearGradient>
<linearGradient id="paint4_linear_1659_3599" x1="8319.81" y1="-28128.9" x2="69754.6" y2="-10326.9" gradientUnits="userSpaceOnUse">
<stop stop-color="#4B91E2"/>
<stop offset="1" stop-color="#8896DD"/>
</linearGradient>
<linearGradient id="paint5_linear_1659_3599" x1="9892.87" y1="-26325.5" x2="67185.9" y2="-5245.8" gradientUnits="userSpaceOnUse">
<stop stop-color="#4B91E2"/>
<stop offset="1" stop-color="#8896DD"/>
</linearGradient>
<linearGradient id="paint6_linear_1659_3599" x1="11264.4" y1="-24472.7" x2="64272.8" y2="-605.254" gradientUnits="userSpaceOnUse">
<stop stop-color="#4B91E2"/>
<stop offset="1" stop-color="#8896DD"/>
</linearGradient>
<linearGradient id="paint7_linear_1659_3599" x1="12418.7" y1="-22554" x2="61046.5" y2="3607.56" gradientUnits="userSpaceOnUse">
<stop stop-color="#4B91E2"/>
<stop offset="1" stop-color="#8896DD"/>
</linearGradient>
<linearGradient id="paint8_linear_1659_3599" x1="13356.2" y1="-20596.4" x2="57555.5" y2="7366.81" gradientUnits="userSpaceOnUse">
<stop stop-color="#4B91E2"/>
<stop offset="1" stop-color="#8896DD"/>
</linearGradient>
<linearGradient id="paint9_linear_1659_3599" x1="14086.6" y1="-18633.6" x2="53856.5" y2="10644.4" gradientUnits="userSpaceOnUse">
<stop stop-color="#4B91E2"/>
<stop offset="1" stop-color="#8896DD"/>
</linearGradient>
<linearGradient id="paint10_linear_1659_3599" x1="14595.7" y1="-16662.3" x2="49984.9" y2="13456.3" gradientUnits="userSpaceOnUse">
<stop stop-color="#4B91E2"/>
<stop offset="1" stop-color="#8896DD"/>
</linearGradient>
<linearGradient id="paint11_linear_1659_3599" x1="14882.6" y1="-14701.6" x2="45980.5" y2="15794.2" gradientUnits="userSpaceOnUse">
<stop stop-color="#4B91E2"/>
<stop offset="1" stop-color="#8896DD"/>
</linearGradient>
<linearGradient id="paint12_linear_1659_3599" x1="14950.3" y1="-12774" x2="41889.9" y2="17654.3" gradientUnits="userSpaceOnUse">
<stop stop-color="#4B91E2"/>
<stop offset="1" stop-color="#8896DD"/>
</linearGradient>
<linearGradient id="paint13_linear_1659_3599" x1="14803.3" y1="-10900.8" x2="37702.6" y2="18963.7" gradientUnits="userSpaceOnUse">
<stop stop-color="#4B91E2"/>
<stop offset="1" stop-color="#8896DD"/>
</linearGradient>
<linearGradient id="paint14_linear_1659_3599" x1="14448.7" y1="-9103.88" x2="33597.3" y2="19892.3" gradientUnits="userSpaceOnUse">
<stop stop-color="#4B91E2"/>
<stop offset="1" stop-color="#8896DD"/>
</linearGradient>
<linearGradient id="paint15_linear_1659_3599" x1="13890.1" y1="-7400.89" x2="29534" y2="20362.5" gradientUnits="userSpaceOnUse">
<stop stop-color="#4B91E2"/>
<stop offset="1" stop-color="#8896DD"/>
</linearGradient>
<linearGradient id="paint16_linear_1659_3599" x1="13152.9" y1="-5820.41" x2="25562.8" y2="20361.9" gradientUnits="userSpaceOnUse">
<stop stop-color="#4B91E2"/>
<stop offset="1" stop-color="#8896DD"/>
</linearGradient>
<linearGradient id="paint17_linear_1659_3599" x1="12247.8" y1="-4378.3" x2="21730.6" y2="19918.9" gradientUnits="userSpaceOnUse">
<stop stop-color="#4B91E2"/>
<stop offset="1" stop-color="#8896DD"/>
</linearGradient>
<linearGradient id="paint18_linear_1659_3599" x1="11195.4" y1="-3092.82" x2="18082.6" y2="19046.8" gradientUnits="userSpaceOnUse">
<stop stop-color="#4B91E2"/>
<stop offset="1" stop-color="#8896DD"/>
</linearGradient>
<linearGradient id="paint19_linear_1659_3599" x1="9560.91" y1="-1871.69" x2="14207.4" y2="17876.9" gradientUnits="userSpaceOnUse">
<stop stop-color="#4B91E2"/>
<stop offset="1" stop-color="#8896DD"/>
</linearGradient>
<linearGradient id="paint20_linear_1659_3599" x1="8308.46" y1="-979.968" x2="11088.4" y2="16183.7" gradientUnits="userSpaceOnUse">
<stop stop-color="#4B91E2"/>
<stop offset="1" stop-color="#8896DD"/>
</linearGradient>
<linearGradient id="paint21_linear_1659_3599" x1="7379.04" y1="-312.899" x2="8678.39" y2="14075.8" gradientUnits="userSpaceOnUse">
<stop stop-color="#4B91E2"/>
<stop offset="1" stop-color="#8896DD"/>
</linearGradient>
<linearGradient id="paint22_linear_1659_3599" x1="5714.25" y1="229.276" x2="5940.25" y2="11788.8" gradientUnits="userSpaceOnUse">
<stop stop-color="#4B91E2"/>
<stop offset="1" stop-color="#8896DD"/>
</linearGradient>
<linearGradient id="paint23_linear_1659_3599" x1="4339.63" y1="549.649" x2="3897.73" y2="9213.17" gradientUnits="userSpaceOnUse">
<stop stop-color="#4B91E2"/>
<stop offset="1" stop-color="#8896DD"/>
</linearGradient>
<linearGradient id="paint24_linear_1659_3599" x1="2823.72" y1="659.997" x2="2124.61" y2="6386.86" gradientUnits="userSpaceOnUse">
<stop stop-color="#4B91E2"/>
<stop offset="1" stop-color="#8896DD"/>
</linearGradient>
</defs>
</svg>
